<?xml version="1.0" standalone="no"?>
<svg xmlns:xlink="http://www.w3.org/1999/xlink" id="wave" style="transform:rotate(0deg); transition: 0.3s" viewBox="0 0 1440 280" version="1.1" xmlns="http://www.w3.org/2000/svg"><defs><linearGradient id="sw-gradient-0" x1="0" x2="0" y1="1" y2="0"><stop stop-color="rgba(173, 255, 47, 1)" offset="0%"/><stop stop-color="rgba(173, 255, 47, 1)" offset="100%"/></linearGradient></defs><path style="transform:translate(0, 0px); opacity:1" fill="url(#sw-gradient-0)" d="M0,28L34.3,28C68.6,28,137,28,206,56C274.3,84,343,140,411,168C480,196,549,196,617,163.3C685.7,131,754,65,823,74.7C891.4,84,960,168,1029,196C1097.1,224,1166,196,1234,154C1302.9,112,1371,56,1440,70C1508.6,84,1577,168,1646,196C1714.3,224,1783,196,1851,168C1920,140,1989,112,2057,102.7C2125.7,93,2194,103,2263,116.7C2331.4,131,2400,149,2469,144.7C2537.1,140,2606,112,2674,102.7C2742.9,93,2811,103,2880,88.7C2948.6,75,3017,37,3086,23.3C3154.3,9,3223,19,3291,37.3C3360,56,3429,84,3497,84C3565.7,84,3634,56,3703,60.7C3771.4,65,3840,103,3909,98C3977.1,93,4046,47,4114,56C4182.9,65,4251,131,4320,144.7C4388.6,159,4457,121,4526,107.3C4594.3,93,4663,103,4731,93.3C4800,84,4869,56,4903,42L4937.1,28L4937.1,280L4902.9,280C4868.6,280,4800,280,4731,280C4662.9,280,4594,280,4526,280C4457.1,280,4389,280,4320,280C4251.4,280,4183,280,4114,280C4045.7,280,3977,280,3909,280C3840,280,3771,280,3703,280C3634.3,280,3566,280,3497,280C3428.6,280,3360,280,3291,280C3222.9,280,3154,280,3086,280C3017.1,280,2949,280,2880,280C2811.4,280,2743,280,2674,280C2605.7,280,2537,280,2469,280C2400,280,2331,280,2263,280C2194.3,280,2126,280,2057,280C1988.6,280,1920,280,1851,280C1782.9,280,1714,280,1646,280C1577.1,280,1509,280,1440,280C1371.4,280,1303,280,1234,280C1165.7,280,1097,280,1029,280C960,280,891,280,823,280C754.3,280,686,280,617,280C548.6,280,480,280,411,280C342.9,280,274,280,206,280C137.1,280,69,280,34,280L0,280Z"/></svg>